<svg width="96" height="96" viewBox="0 0 96 96" fill="none" xmlns="http://www.w3.org/2000/svg">
    <rect width="96" height="96" fill="white"/>
    <path fill-rule="evenodd" clip-rule="evenodd" d="M15 20C13.3431 20 12 21.3431 12 23V66C12 67.6569 13.3431 69 15 69H50V44C50 41.2386 52.2386 39 55 39H73.5C76.2614 39 78.5 41.2386 78.5 44V50H84V23C84 21.3431 82.6569 20 81 20H15Z" fill="white"/>
    <path d="M83 50V24C83 22.3431 81.6569 21 80 21H16C14.3431 21 13 22.3431 13 24V65C13 66.6569 14.3431 68 16 68H50" stroke="#25282B" stroke-width="2"/>
    <rect x="20" y="28" width="20" height="15" rx="2" fill="#E8E8E8"/>
    <line x1="20" y1="49" x2="40" y2="49" stroke="#25282B" stroke-width="2"/>
    <line x1="20" y1="55" x2="35" y2="55" stroke="#25282B" stroke-width="2"/>
    <path d="M88.4172 78.4982C88.3588 78.5032 88.3001 78.5032 88.2417 78.4982C88.0018 78.4979 87.7695 78.4131 87.5859 78.2586C87.4023 78.1041 87.279 77.8898 87.2377 77.6534L84.4257 61.4344C84.2639 60.5023 83.897 59.6177 83.3513 58.8448C82.8057 58.0719 82.0951 57.43 81.2709 56.9654C80.2424 56.3884 79.1839 55.8666 78.0998 55.4023C77.0172 54.9238 76.122 54.752 74.9724 54.4702V61.2736C75.2138 61.178 75.4605 61.0963 75.7112 61.0287C75.8406 60.9928 75.9758 60.9828 76.1092 60.9991C76.2425 61.0155 76.3713 61.0579 76.4882 61.1241C76.6051 61.1902 76.7079 61.2787 76.7906 61.3846C76.8733 61.4904 76.9343 61.6115 76.9702 61.7409C77.0061 61.8704 77.0162 62.0056 76.9998 62.1389C76.9835 62.2722 76.941 62.401 76.8749 62.518C76.8088 62.6349 76.7203 62.7376 76.6144 62.8203C76.5086 62.903 76.3875 62.9641 76.258 63C75.7228 63.1356 74.9938 63.1695 74.5572 63.5077C75.182 64.4749 75.9937 65.3074 76.9448 65.9564C77.1688 66.1112 77.3222 66.3487 77.3712 66.6166C77.4202 66.8845 77.3608 67.1608 77.206 67.3849C77.0512 67.609 76.8137 67.7624 76.5459 67.8113C76.278 67.8603 76.0016 67.8009 75.7775 67.6461C74.5679 66.8154 73.5426 65.7442 72.7656 64.4994L69.4434 59.2591C69.1891 58.8548 68.7845 58.5681 68.3188 58.4621C67.853 58.3561 67.3643 58.4395 66.96 58.6938C66.5557 58.9482 66.269 59.3528 66.163 59.8185C66.057 60.2842 66.1403 60.773 66.3947 61.1773L68.8761 65.1973C69.8725 66.7957 70.3737 68.653 70.3168 70.5356C70.2767 71.7958 70.5548 73.0457 71.1254 74.1699C71.6961 75.2941 72.5409 76.2563 73.5818 76.9677L73.8512 77.1514C74.9325 77.8906 75.8495 78.8451 76.5448 79.9552C76.6164 80.0694 76.6647 80.1965 76.6872 80.3293C76.7096 80.4622 76.7056 80.5982 76.6755 80.7295C76.6453 80.8608 76.5896 80.9849 76.5116 81.0947C76.4335 81.2045 76.3345 81.2978 76.2204 81.3694C75.9898 81.5139 75.7113 81.5608 75.4461 81.5C75.1809 81.4392 74.9507 81.2754 74.8062 81.0449C74.2597 80.1709 73.5386 79.4192 72.688 78.8369L72.4187 78.6533C70.8937 77.6036 69.7068 76.1331 69.0026 74.421L68.7537 74.674C68.3621 75.0707 67.8743 75.359 67.338 75.5109C66.8016 75.6628 66.2351 75.6731 65.6936 75.5407C65.1522 75.4083 64.6543 75.1378 64.2485 74.7556C63.8428 74.3734 63.5431 73.8925 63.3787 73.3599C62.8346 73.4821 62.2677 73.4565 61.7369 73.2858C61.206 73.1152 60.7304 72.8057 60.3595 72.3893C59.9885 71.973 59.7357 71.465 59.6271 70.918C59.5186 70.3711 59.5584 69.805 59.7423 69.2786L59.9998 69H55.6569C55.308 69 54.9625 69.067 54.6401 68.9335C54.3178 68.8 54.0249 68.6043 53.7782 68.3576C53.5315 68.1108 53.3358 67.818 53.2022 67.4956C53.0687 67.1733 53 66.8278 53 66.4789L53.0047 44.6569C53.0047 44.308 53.0734 43.9625 53.2069 43.6402C53.3405 43.3178 53.5362 43.0249 53.7829 42.7782C54.0296 42.5315 54.3225 42.3358 54.6448 42.2022C54.9672 42.0687 55.3127 42 55.6616 42H72.3243C73.029 42 73.7048 42.4905 74.203 42.9888C74.7013 43.4871 74.9812 44.1629 74.9812 44.8675L74.9765 52.3479C76.4085 52.6604 77.5773 52.908 78.916 53.5045C80.0693 54.0097 81.1947 54.5765 82.2872 55.2023C83.3747 55.818 84.3115 56.6682 85.0294 57.6911C85.7474 58.714 86.2285 59.884 86.4378 61.1161L89.2498 77.3187C89.2727 77.4508 89.2692 77.5861 89.2398 77.7169C89.2103 77.8478 89.1553 77.9715 89.078 78.081C89.0007 78.1905 88.9025 78.2838 88.7891 78.3554C88.6757 78.4269 88.5494 78.4755 88.4172 78.4982ZM65.7009 73.3272C65.93 73.5144 66.2209 73.609 66.5162 73.5924C66.8116 73.5757 67.09 73.4491 67.2967 73.2374L68.3782 72.1355C68.2964 71.5858 68.2623 71.03 68.2762 70.4744C68.2879 70.0238 68.2592 69.5731 68.1905 69.1276H67.0518C67.0518 69.1276 67.0518 69.1684 67.0232 69.1888L65.4315 71.7763C65.2803 72.0234 65.2242 72.3171 65.2737 72.6026C65.3233 72.888 65.4752 73.1456 65.7009 73.3272ZM62.1992 71.2866C62.4418 71.4066 62.7206 71.4312 62.9806 71.3557C63.2405 71.2801 63.4626 71.1098 63.6031 70.8785C63.6358 70.8213 63.6643 70.7642 63.697 70.707L64.6643 69.1317H61.9502L61.6604 69.9479C61.5729 70.1973 61.5794 70.47 61.6785 70.7149C61.7777 70.9599 61.9628 71.1602 62.1992 71.2784V71.2866ZM67.0045 44L55.6616 44.0406C55.4982 44.0406 55.3414 44.1056 55.2258 44.2211C55.1103 44.3367 55.0453 44.4935 55.0453 44.6569L54.9998 66.5C54.9998 66.6634 55.1056 66.7909 55.2211 66.9065C55.3367 67.022 55.4935 67 55.6569 67H67.4998C67.3711 66.7193 67.3037 66.5336 67.1416 66.2707L64.6439 62.2588C64.3736 61.8256 64.1924 61.3428 64.111 60.8387C64.0295 60.3346 64.0494 59.8193 64.1695 59.323C64.2896 58.8266 64.5075 58.3593 64.8104 57.9481C65.1133 57.537 65.4951 57.1905 65.9335 56.9287C66.3215 56.6974 66.5603 56.4952 67.0039 56.4105L67.0045 44ZM72.9998 44.8675C72.9998 44.7048 72.8721 44.5486 72.7575 44.4332C72.6428 44.3177 72.4871 44.0011 72.3243 44H69.0045L69.0026 56.4105C69.7868 56.7037 70.6859 57.4617 71.1331 58.1694L72.9998 61V44.8675Z" fill="#53AD59"/>
    <path d="M53 33L52.2929 32.2929L51.5858 33L52.2929 33.7071L53 33ZM53 34C57.433 34 60.501 34.6198 62.4229 35.5817C64.2999 36.5212 64.991 37.7223 64.991 39H66.991C66.991 36.7777 65.6866 34.9788 63.3181 33.7933C60.9945 32.6302 57.567 32 53 32V34ZM53.7071 33.7071L57.2071 30.2071L55.7929 28.7929L52.2929 32.2929L53.7071 33.7071ZM52.2929 33.7071L55.7929 37.2071L57.2071 35.7929L53.7071 32.2929L52.2929 33.7071Z" fill="#53AD59"/>
</svg>
