<svg width="96" height="96" viewBox="0 0 96 96" fill="none" xmlns="http://www.w3.org/2000/svg">
    <rect width="96" height="96" fill="white"/>
    <rect x="12" y="20" width="72" height="49" rx="3" fill="white"/>
    <path d="M49.0145 68C35.2602 68 28.1312 68 15.0048 68C13.9003 68 13 67.1046 13 66V23C13 21.8954 13.8954 21 15 21H81C82.1046 21 83 21.8954 83 23V45.5" stroke="#25282B" stroke-width="2" stroke-linecap="round"/>
    <rect x="20" y="30" width="15" height="15" rx="2" fill="#E8E8E8"/>
    <rect x="40" y="30" width="15" height="15" rx="2" fill="#E8E8E8"/>
    <line x1="20" y1="51" x2="35" y2="51" stroke="#25282B" stroke-width="2"/>
    <line x1="40" y1="51" x2="51" y2="51" stroke="#25282B" stroke-width="2"/>
    <line x1="20" y1="57" x2="35" y2="57" stroke="#25282B" stroke-width="2"/>
    <line x1="40" y1="57" x2="49" y2="57" stroke="#25282B" stroke-width="2"/>
    <rect x="60" y="30" width="15" height="15" rx="2" fill="#E8E8E8"/>
    <rect x="55" y="53" width="30" height="22" rx="1" fill="white" stroke="#53AD59" stroke-width="2"/>
    <line x1="56" y1="58" x2="84" y2="58" stroke="#53AD59" stroke-width="2"/>
    <circle cx="62" cy="71" r="11" fill="white"/>
    <circle cx="62" cy="71" r="7" fill="white" stroke="#53AD59" stroke-width="2"/>
    <path d="M62 66V71L59 74" stroke="#53AD59" stroke-width="2"/>
    <line x1="61" y1="49" x2="61" y2="52" stroke="#53AD59" stroke-width="2"/>
    <line x1="79" y1="49" x2="79" y2="52" stroke="#53AD59" stroke-width="2"/>
</svg>
