<svg width="120" height="40" viewBox="0 0 120 40" fill="none" xmlns="http://www.w3.org/2000/svg">
    <g opacity="0.8">
        <rect x="0.5" y="0.5" width="119" height="39" rx="5.5" stroke="black"/>
        <path d="M25.401 19.2703C25.4115 18.458 25.6273 17.6615 26.0282 16.955C26.4292 16.2485 27.0024 15.6549 27.6945 15.2294C27.2548 14.6015 26.6748 14.0848 26.0006 13.7203C25.3263 13.3558 24.5763 13.1535 23.8102 13.1295C22.1759 12.958 20.5916 14.1075 19.7588 14.1075C18.9099 14.1075 17.6276 13.1466 16.2469 13.175C15.3538 13.2038 14.4834 13.4635 13.7205 13.9288C12.9576 14.394 12.3283 15.049 11.8938 15.8298C10.0116 19.0885 11.4155 23.8778 13.2185 26.5119C14.1206 27.8018 15.1749 29.2426 16.5544 29.1915C17.9043 29.1355 18.4084 28.3307 20.0379 28.3307C21.6522 28.3307 22.1252 29.1915 23.5327 29.159C24.9813 29.1355 25.8939 27.8634 26.7643 26.5614C27.4125 25.6423 27.9112 24.6265 28.2421 23.5517C27.4005 23.1957 26.6824 22.5999 26.1772 21.8386C25.6719 21.0772 25.402 20.184 25.401 19.2703Z" fill="black"/>
        <path d="M22.7426 11.3971C23.5324 10.449 23.9215 9.23038 23.8273 8C22.6207 8.12673 21.5061 8.70342 20.7056 9.61516C20.3142 10.0606 20.0145 10.5788 19.8235 11.1401C19.6325 11.7014 19.554 12.2949 19.5925 12.8865C20.1961 12.8927 20.7931 12.7619 21.3388 12.5039C21.8844 12.246 22.3644 11.8675 22.7426 11.3971Z" fill="black"/>
        <path d="M41.5965 26.0557H37.1666L36.1028 29.1969H34.2264L38.4224 17.5752H40.3718L44.5677 29.1969H42.6594L41.5965 26.0557ZM37.6254 24.6062H41.1368L39.4058 19.5082H39.3573L37.6254 24.6062Z" fill="black"/>
        <path d="M53.6296 24.9608C53.6296 27.5939 52.2203 29.2856 50.0935 29.2856C49.5548 29.3138 49.019 29.1897 48.5475 28.9275C48.076 28.6653 47.6879 28.2757 47.4276 27.8032H47.3873V32H45.6481V20.7237H47.3316V22.1331H47.3635C47.6358 21.6628 48.0305 21.2752 48.5056 21.0114C48.9807 20.7476 49.5184 20.6176 50.0615 20.6351C52.2121 20.6351 53.6296 22.335 53.6296 24.9608ZM51.8419 24.9608C51.8419 23.2453 50.9554 22.1175 49.6027 22.1175C48.2739 22.1175 47.38 23.2691 47.38 24.9608C47.38 26.6681 48.2739 27.8114 49.6027 27.8114C50.9554 27.8114 51.8419 26.6918 51.8419 24.9608H51.8419Z" fill="black"/>
        <path d="M62.9558 24.9608C62.9558 27.5939 61.546 29.2856 59.4193 29.2856C58.8805 29.3138 58.3447 29.1897 57.8733 28.9275C57.4018 28.6653 57.0136 28.2757 56.7533 27.8032H56.7131V32H54.9738V20.7237H56.6573V22.1331H56.6893C56.9616 21.6628 57.3563 21.2752 57.8314 21.0114C58.3064 20.7476 58.8441 20.6176 59.3873 20.6351C61.5378 20.6351 62.9558 22.335 62.9558 24.9608ZM61.1677 24.9608C61.1677 23.2453 60.2811 22.1175 58.9285 22.1175C57.5996 22.1175 56.7058 23.2691 56.7058 24.9608C56.7058 26.6681 57.5996 27.8114 58.9285 27.8114C60.2811 27.8114 61.1677 26.6918 61.1677 24.9608Z" fill="black"/>
        <path d="M69.1187 25.9588C69.2475 27.1113 70.3671 27.868 71.8971 27.868C73.363 27.868 74.4177 27.1113 74.4177 26.0721C74.4177 25.1701 73.7816 24.6299 72.2754 24.2598L70.7693 23.8969C68.6352 23.3815 67.6445 22.3834 67.6445 20.7639C67.6445 18.7587 69.3919 17.3814 71.8724 17.3814C74.3291 17.3814 76.0126 18.7587 76.0692 20.7639H74.3135C74.2084 19.6041 73.2497 18.904 71.8486 18.904C70.4475 18.904 69.4888 19.6123 69.4888 20.6433C69.4888 21.4649 70.1012 21.9484 71.5991 22.3185L72.8795 22.6329C75.264 23.1968 76.2538 24.1546 76.2538 25.8546C76.2538 28.0288 74.5228 29.3906 71.7682 29.3906C69.1908 29.3906 67.4507 28.0608 67.3383 25.9587L69.1187 25.9588Z" fill="black"/>
        <path d="M80.0092 18.7185V20.7237H81.6205V22.1011H80.0092V26.7722C80.0092 27.4979 80.3319 27.8361 81.0402 27.8361C81.2315 27.8327 81.4224 27.8193 81.6123 27.7958V29.1649C81.2939 29.2244 80.9702 29.2514 80.6463 29.2453C78.9308 29.2453 78.2618 28.601 78.2618 26.9577V22.1011H77.0298V20.7237H78.2618V18.7185H80.0092Z" fill="black"/>
        <path d="M82.5527 24.9608C82.5527 22.2948 84.1229 20.6196 86.5714 20.6196C89.028 20.6196 90.5909 22.2948 90.5909 24.9608C90.5909 27.6341 89.0363 29.302 86.5714 29.302C84.1073 29.302 82.5527 27.6341 82.5527 24.9608ZM88.8187 24.9608C88.8187 23.132 87.9807 22.0526 86.5714 22.0526C85.162 22.0526 84.324 23.1402 84.324 24.9608C84.324 26.7969 85.162 27.8681 86.5714 27.8681C87.9807 27.8681 88.8187 26.7969 88.8187 24.9608H88.8187Z" fill="black"/>
        <path d="M92.0249 20.7238H93.6837V22.166H93.724C93.8362 21.7155 94.1001 21.3175 94.4712 21.0387C94.8424 20.7599 95.2982 20.6174 95.7621 20.6351C95.9625 20.6344 96.1624 20.6562 96.358 20.7V22.3268C96.1049 22.2495 95.841 22.214 95.5765 22.2217C95.3238 22.2115 95.0719 22.256 94.8381 22.3523C94.6043 22.4486 94.3941 22.5943 94.2219 22.7795C94.0497 22.9647 93.9197 23.185 93.8406 23.4252C93.7616 23.6654 93.7355 23.9199 93.7642 24.1712V29.197H92.0249L92.0249 20.7238Z" fill="black"/>
        <path d="M104.377 26.7083C104.143 28.2464 102.645 29.302 100.728 29.302C98.2636 29.302 96.7336 27.6505 96.7336 25.001C96.7336 22.3433 98.2718 20.6196 100.655 20.6196C103 20.6196 104.474 22.2299 104.474 24.799V25.3949H98.4893V25.5C98.4617 25.8119 98.5008 26.126 98.6039 26.4216C98.707 26.7172 98.8718 26.9874 99.0874 27.2144C99.303 27.4414 99.5644 27.62 99.8543 27.7382C100.144 27.8564 100.456 27.9116 100.769 27.9C101.18 27.9386 101.592 27.8434 101.945 27.6286C102.297 27.4139 102.571 27.0911 102.725 26.7083L104.377 26.7083ZM98.4976 24.1794H102.734C102.749 23.899 102.707 23.6184 102.609 23.3552C102.511 23.092 102.36 22.852 102.164 22.65C101.969 22.4481 101.734 22.2887 101.475 22.1818C101.215 22.0749 100.936 22.0228 100.655 22.0289C100.372 22.0272 100.091 22.0816 99.8293 22.189C99.5672 22.2964 99.329 22.4546 99.1284 22.6545C98.9278 22.8545 98.7687 23.0921 98.6605 23.3539C98.5522 23.6156 98.4968 23.8962 98.4976 24.1794V24.1794Z" fill="black"/>
        <path d="M36.3897 11.188H37.1364C37.2649 11.204 37.3954 11.1932 37.5196 11.1563C37.6437 11.1194 37.7589 11.0572 37.8578 10.9735C37.9567 10.8899 38.0373 10.7867 38.0943 10.6704C38.1513 10.5541 38.1837 10.4273 38.1893 10.2978C38.1893 9.78284 37.8018 9.45016 37.1446 9.45016C37.0129 9.43176 36.8789 9.43993 36.7504 9.47419C36.6219 9.50846 36.5016 9.56811 36.3966 9.64964C36.2915 9.73117 36.2039 9.83292 36.1388 9.94888C36.0738 10.0648 36.0326 10.1927 36.0177 10.3248H35.1979C35.212 10.0849 35.2754 9.85055 35.384 9.63622C35.4926 9.4219 35.6442 9.23222 35.8293 9.07902C36.0144 8.92581 36.229 8.81235 36.4599 8.74569C36.6907 8.67904 36.9328 8.66062 37.1711 8.69158C38.2706 8.69158 39.0448 9.30712 39.0448 10.1932C39.0473 10.49 38.948 10.7788 38.7634 11.0112C38.5788 11.2437 38.32 11.4058 38.0303 11.4704V11.5362C38.3737 11.5515 38.6972 11.7021 38.9299 11.9551C39.1627 12.2082 39.2858 12.5431 39.2723 12.8866C39.2469 13.1336 39.1724 13.373 39.0533 13.5908C38.9341 13.8086 38.7727 14.0005 38.5785 14.1551C38.3842 14.3097 38.1611 14.424 37.9221 14.4913C37.6831 14.5585 37.4331 14.5774 37.1867 14.5468C36.9398 14.5804 36.6886 14.5641 36.4482 14.4986C36.2078 14.4331 35.983 14.3199 35.7873 14.1657C35.5915 14.0115 35.4288 13.8195 35.3089 13.601C35.189 13.3826 35.1142 13.1423 35.0892 12.8944H35.9218C35.972 13.4286 36.4628 13.7732 37.1867 13.7732C37.9105 13.7732 38.383 13.3861 38.383 12.8405C38.383 12.2871 37.9379 11.9462 37.1602 11.9462H36.3897V11.188Z" fill="black"/>
        <path d="M40.2183 13.2197C40.2183 12.4612 40.784 12.0238 41.7857 11.9617L42.9272 11.8959V11.5321C42.9272 11.087 42.6338 10.8357 42.0644 10.8357C41.6002 10.8357 41.2794 11.0062 41.1861 11.3041H40.3809C40.4659 10.5803 41.1477 10.116 42.1037 10.116C43.1603 10.116 43.7562 10.6419 43.7562 11.5321V14.4115H42.9546V13.8193H42.8888C42.7553 14.0317 42.5677 14.2049 42.3453 14.3212C42.1229 14.4374 41.8737 14.4926 41.623 14.481C41.4461 14.4994 41.2673 14.4805 41.0981 14.4256C40.9289 14.3706 40.7732 14.2808 40.6408 14.162C40.5085 14.0432 40.4025 13.8979 40.3297 13.7356C40.2569 13.5734 40.219 13.3976 40.2183 13.2197ZM42.9272 12.8596V12.5073L41.8981 12.5731C41.3177 12.612 41.0545 12.8094 41.0545 13.1809C41.0545 13.5602 41.3835 13.7809 41.8359 13.7809C41.9685 13.7943 42.1024 13.7809 42.2297 13.7415C42.357 13.7022 42.4751 13.6376 42.5769 13.5516C42.6787 13.4657 42.7622 13.3601 42.8224 13.2412C42.8825 13.1223 42.9182 12.9926 42.9272 12.8596Z" fill="black"/>
        <path d="M45.9634 10.8974V14.4115H45.1317V10.1973H47.9065V10.8973L45.9634 10.8974Z" fill="black"/>
        <path d="M52.9468 12.3026C52.9468 13.6415 52.2696 14.481 51.2057 14.481C50.9446 14.4988 50.6838 14.4417 50.454 14.3163C50.2243 14.1909 50.0351 14.0024 49.9089 13.7731H49.843V15.8126H49.0114V10.1973H49.812V10.8938H49.8741C50.0027 10.6565 50.1943 10.4593 50.4278 10.3241C50.6613 10.1889 50.9277 10.1208 51.1975 10.1274C52.2696 10.1274 52.9468 10.9632 52.9468 12.3026ZM52.0914 12.3026C52.0914 11.4124 51.67 10.8746 50.9654 10.8746C50.2653 10.8746 49.8275 11.4238 49.8275 12.3063C49.8275 13.1846 50.2653 13.7343 50.9617 13.7343C51.67 13.7343 52.0914 13.1964 52.0914 12.3026Z" fill="black"/>
        <path d="M54.0545 15.9209V15.2048C54.1445 15.2163 54.2352 15.2215 54.3259 15.2204C54.5031 15.2335 54.6789 15.1807 54.8195 15.0722C54.9602 14.9636 55.0559 14.807 55.0881 14.6322L55.1503 14.4271L53.6249 10.1973H54.5306L55.5872 13.5446H55.653L56.7058 10.1973H57.5878L56.0167 14.5856C55.6566 15.6111 55.2581 15.9401 54.399 15.9401C54.3296 15.9401 54.1322 15.9323 54.0545 15.9209Z" fill="black"/>
        <path d="M58.2358 13.2156H59.0638C59.1452 13.5872 59.4934 13.7809 59.9805 13.7809C60.5344 13.7809 60.8743 13.5369 60.8743 13.1576C60.8743 12.7514 60.5691 12.5576 59.9805 12.5576H59.3499V11.9115H59.9695C60.4722 11.9115 60.7281 11.7182 60.7281 11.3658C60.7281 11.0565 60.4804 10.8202 59.9695 10.8202C59.5043 10.8202 59.1644 11.0176 59.1104 11.3503H58.3089C58.3688 10.968 58.5764 10.6246 58.8869 10.3937C59.1975 10.1629 59.5862 10.0632 59.9695 10.116C60.9712 10.116 61.5443 10.5689 61.5443 11.2808C61.5489 11.4791 61.4854 11.673 61.3643 11.83C61.2432 11.9871 61.0719 12.0978 60.8789 12.1436V12.2094C61.1086 12.2391 61.3195 12.352 61.4714 12.5268C61.6234 12.7016 61.7059 12.926 61.7033 13.1576C61.7033 13.9588 61.0215 14.4888 59.9805 14.4888C59.0602 14.4888 58.3126 14.067 58.2358 13.2156Z" fill="black"/>
        <path d="M62.901 14.4115V10.1973H63.7254V13.0959H63.7912L65.7333 10.1973H66.5577V14.4115H65.7333V11.4974H65.6712L63.7254 14.4115L62.901 14.4115Z" fill="black"/>
        <path d="M71.0991 10.8974H69.772V14.4115H68.9394V10.8974H67.6123V10.1973H71.0991V10.8974Z" fill="black"/>
        <path d="M75.5793 13.2737C75.4659 13.6588 75.2209 13.9919 74.887 14.2147C74.553 14.4376 74.1514 14.536 73.7523 14.4929C73.4746 14.5002 73.1987 14.447 72.9437 14.337C72.6887 14.227 72.4606 14.0629 72.2754 13.8559C72.0902 13.6489 71.9522 13.4042 71.8711 13.1385C71.79 12.8729 71.7676 12.5928 71.8056 12.3177C71.7686 12.0417 71.7914 11.761 71.8723 11.4946C71.9532 11.2282 72.0905 10.9822 72.2747 10.7735C72.459 10.5647 72.6859 10.398 72.9402 10.2845C73.1945 10.1711 73.4702 10.1136 73.7486 10.116C74.9212 10.116 75.6295 10.9171 75.6295 12.2404V12.5306H72.6537V12.5773C72.6405 12.7319 72.6599 12.8877 72.7105 13.0344C72.7611 13.1812 72.8418 13.3158 72.9475 13.4295C73.0532 13.5432 73.1815 13.6335 73.3242 13.6946C73.4669 13.7558 73.6208 13.7864 73.776 13.7845C73.9749 13.8083 74.1762 13.7724 74.3546 13.6815C74.533 13.5905 74.6803 13.4485 74.7777 13.2736L75.5793 13.2737ZM72.6537 11.9155H74.7814C74.7919 11.7742 74.7727 11.6322 74.7251 11.4987C74.6775 11.3651 74.6024 11.2431 74.5048 11.1403C74.4072 11.0375 74.2892 10.9562 74.1583 10.9017C74.0275 10.8472 73.8867 10.8207 73.745 10.8238C73.6011 10.8219 73.4582 10.8488 73.3249 10.903C73.1916 10.9571 73.0705 11.0375 72.9688 11.1393C72.8671 11.241 72.7868 11.3622 72.7327 11.4955C72.6785 11.6288 72.6517 11.7717 72.6537 11.9155H72.6537Z" fill="black"/>
        <path d="M79.1052 10.1973H81.0053C81.8297 10.1973 82.3132 10.615 82.3132 11.2689C82.3145 11.4764 82.2444 11.678 82.1148 11.8401C81.9852 12.0021 81.8039 12.1147 81.6012 12.1591V12.2249C81.8473 12.2404 82.0781 12.3499 82.2458 12.5307C82.4135 12.7115 82.5053 12.9498 82.5024 13.1964C82.5024 13.9317 81.9494 14.4115 81.0245 14.4115H79.1052V10.1973ZM79.9296 10.8357V11.9269H80.754C81.2567 11.9269 81.497 11.7336 81.497 11.3772C81.497 11.0486 81.2877 10.8357 80.8463 10.8357L79.9296 10.8357ZM79.9296 12.5384V13.7731H80.9158C81.4075 13.7731 81.6707 13.5561 81.6707 13.1576C81.6707 12.7358 81.3728 12.5384 80.8116 12.5384L79.9296 12.5384Z" fill="black"/>
    </g>
</svg>
