<svg width="149" height="44" viewBox="0 0 149 44" fill="none" xmlns="http://www.w3.org/2000/svg">
    <path d="M11.342 16.2403L0.214355 9.74791V34.6973L9.08665 39.8263C9.6937 40.2012 10.3792 40.4321 11.0903 40.5013C11.8013 40.5704 12.5188 40.476 13.1873 40.2252C14.037 39.8965 14.7663 39.3188 15.2789 38.5685C15.7915 37.8183 16.063 36.9309 16.0577 36.0236V24.3837C16.0547 22.7347 15.6177 21.1152 14.7904 19.6865C13.963 18.2578 12.7741 17.0697 11.342 16.2403ZM8.60203 33.7698L4.87417 31.5717V18.5869L8.64862 20.8128C9.20067 21.1407 9.65812 21.6051 9.97655 22.1609C10.295 22.7167 10.4636 23.3451 10.466 23.9848V32.7125C10.4645 32.9288 10.4059 33.1409 10.2961 33.3276C10.1863 33.5142 10.0291 33.6688 9.84028 33.7759C9.65146 33.8831 9.43767 33.9389 9.22033 33.9378C9.003 33.9367 8.78977 33.8788 8.60203 33.7698Z" fill="#A0A4A8"/>
    <path d="M21.6495 16.129C20.2155 16.9594 19.0249 18.1488 18.196 19.5791C17.3671 21.0093 16.9287 22.6305 16.9244 24.2816V44L21.5843 41.2175V34.8086L28.108 30.9595V37.387L32.7678 34.8179V9.60875L21.6495 16.129ZM28.108 25.2647L22.5162 28.3533V24.7825C22.5167 23.9193 22.7429 23.0712 23.1727 22.3215C23.6024 21.5718 24.2209 20.9463 24.9673 20.5067L28.108 18.6518V25.2647Z" fill="#A0A4A8"/>
    <path d="M16.4584 0L32.9262 9.50675L28.0987 12.3263L16.4584 5.67622V0Z" fill="#A0A4A8"/>
    <path d="M16.4585 0L0 9.50675L4.82757 12.3263L16.4585 5.67622V0Z" fill="#A0A4A8"/>
    <path d="M10.4381 12.3263L16.4586 8.85751L22.4884 12.3263L16.4586 15.7858L10.4381 12.3263Z" fill="#A0A4A8"/>
    <path d="M49.016 14.2C50.552 14.2 51.76 14.36 52.64 14.68C53.536 15 54.168 15.552 54.536 16.336C54.92 17.12 55.112 18.216 55.112 19.624C55.112 21.032 54.928 22.128 54.56 22.912C54.208 23.696 53.616 24.24 52.784 24.544C51.968 24.848 50.872 25.008 49.496 25.024C48.952 25.008 48.408 24.984 47.864 24.952C47.336 24.92 46.824 24.88 46.328 24.832V31H42.68V14.44C43.336 14.376 43.96 14.328 44.552 14.296C45.144 14.264 45.784 14.24 46.472 14.224C47.176 14.208 48.024 14.2 49.016 14.2ZM48.944 16.96C48.464 16.96 48 16.96 47.552 16.96C47.12 16.96 46.712 16.96 46.328 16.96V22.264H48.944C49.904 22.264 50.56 22.088 50.912 21.736C51.264 21.384 51.44 20.68 51.44 19.624C51.44 18.568 51.264 17.864 50.912 17.512C50.56 17.144 49.904 16.96 48.944 16.96ZM62.8456 18.832C64.3336 18.832 65.5256 19.04 66.4216 19.456C67.3176 19.856 67.9576 20.52 68.3416 21.448C68.7416 22.36 68.9416 23.576 68.9416 25.096C68.9416 26.616 68.7416 27.832 68.3416 28.744C67.9576 29.64 67.3176 30.288 66.4216 30.688C65.5256 31.088 64.3336 31.288 62.8456 31.288C61.3576 31.288 60.1656 31.088 59.2696 30.688C58.3736 30.288 57.7256 29.64 57.3256 28.744C56.9416 27.832 56.7496 26.616 56.7496 25.096C56.7496 23.576 56.9416 22.36 57.3256 21.448C57.7256 20.52 58.3736 19.856 59.2696 19.456C60.1656 19.04 61.3576 18.832 62.8456 18.832ZM62.8456 21.4C62.2216 21.4 61.7336 21.504 61.3816 21.712C61.0456 21.92 60.8056 22.296 60.6616 22.84C60.5176 23.368 60.4456 24.12 60.4456 25.096C60.4456 26.056 60.5176 26.8 60.6616 27.328C60.8056 27.856 61.0456 28.224 61.3816 28.432C61.7336 28.624 62.2216 28.72 62.8456 28.72C63.4696 28.72 63.9496 28.624 64.2856 28.432C64.6376 28.224 64.8856 27.856 65.0296 27.328C65.1736 26.8 65.2456 26.056 65.2456 25.096C65.2456 24.12 65.1736 23.368 65.0296 22.84C64.8856 22.296 64.6376 21.92 64.2856 21.712C63.9496 21.504 63.4696 21.4 62.8456 21.4ZM74.1459 19.144L74.4819 20.944C76.1139 19.536 77.7219 18.832 79.3059 18.832H79.9299L79.5939 22.096H78.6099C78.0979 22.096 77.5539 22.168 76.9779 22.312C76.4179 22.456 75.7299 22.672 74.9139 22.96V31H71.3859V19.144H74.1459ZM89.5246 19.144V21.472H86.2126V27.208C86.2126 27.64 86.3086 27.952 86.5006 28.144C86.6926 28.32 87.0286 28.408 87.5086 28.408H89.0446L89.4286 30.808C89.1246 30.92 88.7646 31.008 88.3486 31.072C87.9326 31.136 87.5166 31.184 87.1006 31.216C86.7006 31.248 86.3566 31.264 86.0686 31.264C84.9966 31.264 84.1566 30.984 83.5486 30.424C82.9566 29.848 82.6606 29.04 82.6606 28V21.472H80.5966V19.264L82.6606 19.168V15.856H86.2126V19.144H89.5246ZM97.6884 18.832C99.1764 18.832 100.32 19.144 101.12 19.768C101.92 20.392 102.32 21.52 102.32 23.152V31H99.5124L99.1284 29.128C98.6964 29.624 98.1124 30.104 97.3764 30.568C96.6404 31.032 95.7364 31.264 94.6644 31.264C93.5924 31.264 92.6884 30.984 91.9524 30.424C91.2164 29.864 90.8484 29.032 90.8484 27.928V26.704C90.8484 25.76 91.1684 25.024 91.8084 24.496C92.4484 23.968 93.3284 23.704 94.4484 23.704H98.7684V23.152C98.7524 22.576 98.6084 22.168 98.3364 21.928C98.0804 21.672 97.5924 21.544 96.8724 21.544C96.2484 21.544 95.4804 21.568 94.5684 21.616C93.6564 21.648 92.7204 21.696 91.7604 21.76L91.4484 19.408C92.0084 19.312 92.6564 19.224 93.3924 19.144C94.1444 19.048 94.8964 18.976 95.6484 18.928C96.4004 18.864 97.0804 18.832 97.6884 18.832ZM95.7684 28.696C96.2004 28.696 96.6804 28.6 97.2084 28.408C97.7524 28.2 98.2724 27.92 98.7684 27.568V25.696H95.5524C95.1204 25.712 94.8084 25.824 94.6164 26.032C94.4404 26.24 94.3524 26.52 94.3524 26.872V27.448C94.3524 28.28 94.8244 28.696 95.7684 28.696ZM108.664 14.2L108.64 27.208C108.64 28.008 109.112 28.408 110.056 28.408H111.016L111.424 30.808C111.216 30.92 110.936 31.008 110.584 31.072C110.232 31.136 109.872 31.184 109.504 31.216C109.136 31.248 108.832 31.264 108.592 31.264C107.52 31.264 106.672 30.992 106.048 30.448C105.44 29.888 105.136 29.104 105.136 28.096V14.2H108.664ZM124.324 14.2C126.068 14.2 127.452 14.456 128.476 14.968C129.516 15.48 130.268 16.352 130.732 17.584C131.196 18.816 131.428 20.528 131.428 22.72C131.428 24.912 131.196 26.624 130.732 27.856C130.268 29.088 129.516 29.96 128.476 30.472C127.452 30.968 126.068 31.216 124.324 31.216C123.06 31.216 121.9 31.192 120.844 31.144C119.788 31.112 118.788 31.064 117.844 31V14.44C118.804 14.376 119.804 14.32 120.844 14.272C121.884 14.224 123.044 14.2 124.324 14.2ZM124.324 17.008C123.796 17.008 123.292 17.008 122.812 17.008C122.348 17.008 121.908 17.016 121.492 17.032V28.384C122.356 28.4 123.3 28.408 124.324 28.408C125.156 28.408 125.804 28.248 126.268 27.928C126.732 27.592 127.06 27.008 127.252 26.176C127.46 25.344 127.564 24.192 127.564 22.72C127.564 21.248 127.46 20.096 127.252 19.264C127.06 18.432 126.732 17.848 126.268 17.512C125.804 17.176 125.156 17.008 124.324 17.008ZM141.982 14.44C142.286 14.44 142.55 14.528 142.774 14.704C143.014 14.88 143.174 15.112 143.254 15.4L148.054 31H144.31L143.086 26.608H137.374L136.174 31H132.43L137.23 15.4C137.31 15.112 137.462 14.88 137.686 14.704C137.926 14.528 138.198 14.44 138.502 14.44H141.982ZM139.558 18.808L138.142 23.872H142.318L140.926 18.808C140.846 18.552 140.774 18.288 140.71 18.016C140.662 17.728 140.614 17.456 140.566 17.2H139.918C139.87 17.456 139.814 17.728 139.75 18.016C139.686 18.288 139.622 18.552 139.558 18.808Z" fill="#A0A4A8"/>
</svg>
