<svg width="120" height="40" viewBox="0 0 120 40" fill="none" xmlns="http://www.w3.org/2000/svg">
    <g opacity="0.8">
        <rect x="0.5" y="0.5" width="119" height="39" rx="5.5" stroke="black"/>
        <path d="M59.4597 22.1636C58.7144 22.1654 57.9863 22.3881 57.3676 22.8036C56.7489 23.2191 56.2673 23.8088 55.9837 24.498C55.7001 25.1873 55.6273 25.9451 55.7744 26.6758C55.9215 27.4064 56.282 28.077 56.8102 28.6028C57.3384 29.1285 58.0107 29.4859 58.7421 29.6295C59.4734 29.7732 60.2309 29.6968 60.9188 29.41C61.6067 29.1232 62.1941 28.6388 62.6067 28.0181C63.0193 27.3975 63.2386 26.6684 63.2368 25.9231C63.244 25.4259 63.1511 24.9323 62.9637 24.4718C62.7762 24.0113 62.4979 23.5932 62.1455 23.2424C61.7931 22.8916 61.3737 22.6153 60.9122 22.43C60.4508 22.2447 59.9568 22.1541 59.4597 22.1636ZM59.4597 28.2053C59.0029 28.2373 58.547 28.131 58.1514 27.9005C57.7557 27.6699 57.4386 27.3256 57.2412 26.9124C57.0438 26.4992 56.9753 26.0362 57.0445 25.5835C57.1137 25.1309 57.3176 24.7095 57.6295 24.3742C57.9414 24.0389 58.3469 23.8052 58.7934 23.7035C59.2399 23.6017 59.7066 23.6367 60.133 23.8037C60.5594 23.9708 60.9256 24.2622 61.1842 24.6402C61.4427 25.0182 61.5816 25.4652 61.5827 25.9231C61.5969 26.2132 61.5529 26.5033 61.4533 26.7762C61.3536 27.0491 61.2004 27.2992 61.0025 27.512C60.8046 27.7247 60.5662 27.8956 60.3012 28.0147C60.0362 28.1337 59.7501 28.1986 59.4597 28.2053ZM51.2154 22.1636C50.4701 22.1654 49.7421 22.3881 49.1234 22.8036C48.5046 23.2191 48.023 23.8088 47.7394 24.498C47.4558 25.1873 47.383 25.9451 47.5301 26.6758C47.6772 27.4064 48.0377 28.077 48.5659 28.6028C49.0942 29.1285 49.7665 29.4859 50.4978 29.6295C51.2291 29.7732 51.9866 29.6968 52.6745 29.41C53.3624 29.1232 53.9498 28.6388 54.3624 28.0181C54.775 27.3975 54.9943 26.6684 54.9926 25.9231C54.9998 25.4259 54.9069 24.9323 54.7194 24.4718C54.5319 24.0113 54.2536 23.5932 53.9012 23.2424C53.5488 22.8916 53.1294 22.6153 52.668 22.43C52.2066 22.2447 51.7126 22.1541 51.2154 22.1636ZM51.2154 28.2053C50.7586 28.2373 50.3027 28.131 49.9071 27.9005C49.5114 27.6699 49.1943 27.3256 48.9969 26.9124C48.7995 26.4992 48.731 26.0362 48.8002 25.5835C48.8695 25.1309 49.0733 24.7095 49.3852 24.3742C49.6971 24.0389 50.1026 23.8052 50.5491 23.7035C50.9956 23.6017 51.4624 23.6367 51.8887 23.8037C52.3151 23.9708 52.6814 24.2622 52.9399 24.6402C53.1984 25.0182 53.3373 25.4652 53.3384 25.9231C53.3527 26.2132 53.3087 26.5033 53.209 26.7762C53.1094 27.0491 52.9561 27.2992 52.7582 27.512C52.5604 27.7247 52.3219 27.8956 52.057 28.0147C51.792 28.1337 51.5058 28.1986 51.2154 28.2053ZM41.4143 23.3224V24.9147H45.2357C45.1757 25.6646 44.864 26.3723 44.3511 26.9227C43.9678 27.3132 43.5067 27.619 42.9978 27.8201C42.4888 28.0212 41.9434 28.1133 41.3966 28.0903C40.2705 28.0903 39.1905 27.643 38.3942 26.8467C37.598 26.0504 37.1506 24.9704 37.1506 23.8443C37.1506 22.7182 37.598 21.6383 38.3942 20.842C39.1905 20.0457 40.2705 19.5984 41.3966 19.5984C42.4762 19.5823 43.5186 19.9923 44.298 20.7395L45.4214 19.6161C44.8942 19.0946 44.2682 18.6836 43.5801 18.4072C42.8921 18.1307 42.1557 17.9944 41.4143 18.0061C40.6279 17.9755 39.8434 18.104 39.1079 18.3838C38.3723 18.6636 37.7008 19.0891 37.1336 19.6346C36.5664 20.1802 36.1152 20.8346 35.8069 21.5588C35.4987 22.2829 35.3398 23.0618 35.3398 23.8488C35.3398 24.6357 35.4987 25.4146 35.8069 26.1388C36.1152 26.8629 36.5664 27.5173 37.1336 28.0629C37.7008 28.6084 38.3723 29.0339 39.1079 29.3137C39.8434 29.5935 40.6279 29.722 41.4143 29.6914C42.171 29.7216 42.9255 29.5914 43.6283 29.3094C44.3311 29.0274 44.9663 28.5998 45.4922 28.0549C46.4211 27.0345 46.9161 25.6924 46.8721 24.3132C46.8753 23.9812 46.8487 23.6496 46.7925 23.3224H41.4143ZM81.4945 24.5608C81.2638 23.8821 80.8324 23.2895 80.2575 22.8614C79.6825 22.4334 78.991 22.19 78.2747 22.1636C77.7908 22.1627 77.3119 22.261 76.8675 22.4525C76.4231 22.644 76.0228 22.9246 75.6911 23.2769C75.3595 23.6293 75.1037 24.0459 74.9395 24.501C74.7752 24.9562 74.7061 25.4402 74.7364 25.9231C74.7288 26.7306 74.9827 27.5188 75.46 28.1702C75.9374 28.8215 76.6127 29.3008 77.385 29.5367C78.1573 29.7726 78.9852 29.7523 79.745 29.4788C80.5048 29.2054 81.1558 28.6935 81.6007 28.0195L80.318 27.135C80.1268 27.4537 79.8556 27.7168 79.5313 27.8984C79.207 28.0799 78.8409 28.1735 78.4693 28.1699C78.0859 28.1858 77.7066 28.0852 77.3814 27.8816C77.0562 27.6779 76.8002 27.3806 76.647 27.0288L81.6803 24.9501L81.4945 24.5608ZM76.364 25.8169C76.346 25.5422 76.3831 25.2666 76.473 25.0063C76.5629 24.7461 76.7039 24.5064 76.8876 24.3012C77.0713 24.0961 77.294 23.9297 77.5428 23.8118C77.7917 23.6938 78.0615 23.6267 78.3366 23.6143C78.6216 23.5969 78.9054 23.664 79.1525 23.8072C79.3995 23.9504 79.5988 24.1633 79.7254 24.4193L76.364 25.8169ZM72.2772 29.4614H73.9314V18.4042H72.2772V29.4614ZM69.5704 23.004H69.5085C69.2614 22.7226 68.9564 22.4978 68.6144 22.3452C68.2725 22.1925 67.9015 22.1155 67.527 22.1194C66.5604 22.1663 65.6488 22.5833 64.9812 23.284C64.3136 23.9848 63.9413 24.9155 63.9413 25.8833C63.9413 26.8511 64.3136 27.7818 64.9812 28.4825C65.6488 29.1833 66.5604 29.6003 67.527 29.6472C67.9021 29.6547 68.2741 29.5793 68.6167 29.4264C68.9592 29.2735 69.2637 29.0468 69.5085 28.7626H69.5704V29.3022C69.5704 30.744 68.8008 31.5136 67.5624 31.5136C67.1487 31.5045 66.7471 31.3727 66.4084 31.1349C66.0698 30.8971 65.8095 30.564 65.6606 30.1779L64.2276 30.7706C64.4925 31.436 64.9531 32.0054 65.5486 32.4034C66.144 32.8014 66.8463 33.0093 67.5624 32.9997C69.4996 32.9997 71.1007 31.8586 71.1007 29.081V22.3848H69.5704V23.004ZM67.6686 28.2053C67.089 28.1692 66.545 27.9135 66.1474 27.4903C65.7497 27.0671 65.5284 26.5082 65.5284 25.9275C65.5284 25.3468 65.7497 24.788 66.1474 24.3648C66.545 23.9416 67.089 23.6859 67.6686 23.6497C67.9518 23.662 68.2298 23.731 68.4858 23.8529C68.7418 23.9747 68.9707 24.1468 69.1589 24.3589C69.3471 24.571 69.4907 24.8188 69.5811 25.0875C69.6716 25.3562 69.707 25.6404 69.6854 25.9231C69.7095 26.2068 69.6759 26.4924 69.5865 26.7627C69.4971 27.033 69.3538 27.2823 69.1652 27.4957C68.9767 27.709 68.7469 27.8819 68.4896 28.0039C68.2324 28.1258 67.9531 28.1944 67.6686 28.2053ZM89.2434 18.4042H85.2805V29.4614H86.9347V25.2685H89.2434C89.7149 25.3024 90.1882 25.2388 90.634 25.0816C91.0798 24.9245 91.4884 24.6772 91.8344 24.3552C92.1804 24.0332 92.4563 23.6433 92.645 23.2099C92.8336 22.7766 92.931 22.309 92.931 21.8363C92.931 21.3637 92.8336 20.8961 92.645 20.4627C92.4563 20.0294 92.1804 19.6395 91.8344 19.3175C91.4884 18.9955 91.0798 18.7482 90.634 18.5911C90.1882 18.4339 89.7149 18.3703 89.2434 18.4042ZM89.2434 23.7116H86.9347V19.9433H89.2788C89.5274 19.9433 89.7736 19.9923 90.0032 20.0874C90.2329 20.1826 90.4416 20.322 90.6174 20.4978C90.7931 20.6736 90.9326 20.8823 91.0277 21.1119C91.1229 21.3416 91.1718 21.5877 91.1718 21.8363C91.1718 22.0849 91.1229 22.3311 91.0277 22.5608C90.9326 22.7904 90.7931 22.9991 90.6174 23.1749C90.4416 23.3507 90.2329 23.4901 90.0032 23.5852C89.7736 23.6804 89.5274 23.7293 89.2788 23.7293L89.2434 23.7116ZM99.4515 22.1283C98.8491 22.0911 98.249 22.2313 97.7255 22.5316C97.2019 22.8319 96.7779 23.2791 96.5058 23.8178L97.9654 24.4282C98.1129 24.1623 98.3342 23.9447 98.6026 23.8019C98.871 23.6591 99.1751 23.597 99.478 23.6232C99.688 23.5987 99.9008 23.6162 100.104 23.6748C100.307 23.7334 100.496 23.8318 100.661 23.9644C100.826 24.0969 100.962 24.261 101.063 24.4469C101.164 24.6329 101.226 24.837 101.247 25.0474V25.1535C100.715 24.8739 100.123 24.7282 99.5222 24.7289C97.9477 24.7289 96.3378 25.6135 96.3378 27.2234C96.3533 27.5656 96.4375 27.9012 96.5853 28.2102C96.7331 28.5192 96.9415 28.7954 97.1981 29.0223C97.4547 29.2492 97.7543 29.4222 98.0791 29.5311C98.4039 29.64 98.7473 29.6824 99.0888 29.656C99.5039 29.679 99.9176 29.5911 100.288 29.4015C100.658 29.2118 100.97 28.9272 101.194 28.5768H101.247V29.4614H102.839V25.2066C102.839 23.2694 101.371 22.1459 99.4868 22.1459L99.4515 22.1283ZM99.248 28.1876C98.7084 28.1876 97.9565 27.9134 97.9565 27.25C97.9565 26.3654 98.8942 26.0646 99.7257 26.0646C100.251 26.0517 100.77 26.18 101.229 26.4361C101.174 26.9165 100.946 27.3605 100.588 27.6858C100.23 28.0111 99.7669 28.1957 99.2834 28.2053L99.248 28.1876ZM108.642 22.3848L106.749 27.1792H106.696L104.732 22.3848H102.963L105.909 29.0899L104.228 32.814H105.953L110.482 22.3848H108.642ZM93.7813 29.4614H95.4266V18.4042H93.7813V29.4614Z" fill="black"/>
        <path d="M8.41956 9.59374C8.12806 9.93839 7.97933 10.3814 8.0038 10.8321V30.399C7.97371 30.8505 8.12313 31.2956 8.41956 31.6374L8.48148 31.7082L19.4414 20.7483V20.4829L8.48148 9.53181L8.41956 9.59374Z" fill="url(#paint0_linear)"/>
        <path d="M23.0682 24.4016L19.4414 20.7483V20.4829L23.0682 16.8296L23.1478 16.8827L27.4911 19.3418C28.7295 20.0406 28.7295 21.1906 27.4911 21.8983L23.1655 24.3574L23.0682 24.4016Z" fill="url(#paint1_linear)"/>
        <path d="M23.1744 24.3485L19.4415 20.6156L8.41968 31.6374C8.66964 31.8599 8.98958 31.9879 9.32403 31.9992C9.65848 32.0105 9.98634 31.9044 10.2508 31.6993L23.1744 24.3485Z" fill="url(#paint2_linear)"/>
        <path d="M23.1744 16.8826L10.2508 9.54057C9.98806 9.33261 9.66045 9.22394 9.32555 9.23365C8.99065 9.24335 8.66989 9.37082 8.41968 9.59364L19.4415 20.6155L23.1744 16.8826Z" fill="url(#paint3_linear)"/>
        <path opacity="0.2" d="M23.0683 24.2689L10.2508 31.5666C9.99595 31.759 9.68541 31.863 9.36618 31.863C9.04694 31.863 8.73641 31.759 8.4816 31.5666L8.41968 31.6286L8.4816 31.6993C8.73641 31.8916 9.04694 31.9957 9.36618 31.9957C9.68541 31.9957 9.99595 31.8916 10.2508 31.6993L23.1744 24.3485L23.0683 24.2689Z" fill="black"/>
        <path opacity="0.12" d="M8.41956 31.5135C8.13543 31.1627 7.99618 30.7165 8.03034 30.2663V30.399C8.00024 30.8504 8.14967 31.2955 8.44609 31.6374L8.50802 31.5754L8.41956 31.5135Z" fill="black"/>
        <path opacity="0.12" d="M27.491 21.7655L23.0681 24.2689L23.1477 24.3485L27.491 21.8893C27.7474 21.7809 27.9698 21.6054 28.1348 21.3812C28.2998 21.1571 28.4013 20.8926 28.4287 20.6156C28.3734 20.8673 28.2597 21.1025 28.0968 21.3022C27.934 21.502 27.7264 21.6607 27.491 21.7655Z" fill="black"/>
        <path opacity="0.25" d="M10.2511 9.66526L27.4915 19.4664C27.727 19.5712 27.9345 19.7299 28.0973 19.9297C28.2602 20.1294 28.3739 20.3646 28.4292 20.6163C28.4018 20.3393 28.3003 20.0748 28.1353 19.8506C27.9703 19.6265 27.7479 19.451 27.4915 19.3425L10.2511 9.54142C9.02154 8.83376 8.00427 9.41758 8.00427 10.8329V10.9656C8.03081 9.55027 9.02154 8.96645 10.2511 9.66526Z" fill="white"/>
        <path d="M36.4341 15.5479H35.7883V13.7787H36.3368C36.5835 13.5108 36.7691 13.1925 36.8806 12.8458C36.9921 12.499 37.0269 12.1322 36.9825 11.7707V9.11699H40.5208V13.7699H41.1135V15.539H40.4589V14.4245H36.4341V15.5479ZM37.6636 11.7707C37.7031 12.4813 37.5274 13.1873 37.1594 13.7964H39.8132V9.77158H37.6636V11.7707Z" fill="black" stroke="black" stroke-width="0.2" stroke-miterlimit="10"/>
        <path d="M46.4299 13.7336C46.1752 13.989 45.8725 14.1917 45.5394 14.33C45.2062 14.4682 44.849 14.5394 44.4883 14.5394C44.1275 14.5394 43.7703 14.4682 43.4372 14.33C43.104 14.1917 42.8013 13.989 42.5466 13.7336C42.0405 13.2051 41.7581 12.5016 41.7581 11.7699C41.7581 11.0381 42.0405 10.3346 42.5466 9.80609C42.8013 9.55067 43.104 9.34801 43.4372 9.20974C43.7703 9.07147 44.1275 9.00029 44.4883 9.00029C44.849 9.00029 45.2062 9.07147 45.5394 9.20974C45.8725 9.34801 46.1752 9.55067 46.4299 9.80609C46.6854 10.0644 46.8867 10.3712 47.0219 10.7084C47.1572 11.0457 47.2235 11.4066 47.2172 11.7699C47.2276 12.1337 47.1631 12.4958 47.0277 12.8336C46.8923 13.1714 46.6888 13.4778 46.4299 13.7336ZM43.042 13.2913C43.2284 13.4849 43.4525 13.6382 43.7005 13.7416C43.9485 13.8451 44.2151 13.8966 44.4838 13.8928C44.7528 13.8982 45.0198 13.8474 45.2681 13.7439C45.5163 13.6403 45.7403 13.4862 45.9257 13.2913C46.3074 12.8766 46.5192 12.3335 46.5192 11.7699C46.5192 11.2062 46.3074 10.6631 45.9257 10.2484C45.7403 10.0535 45.5163 9.89939 45.2681 9.79583C45.0198 9.69226 44.7528 9.64153 44.4838 9.64687C44.2151 9.64314 43.9485 9.6946 43.7005 9.79806C43.4525 9.90153 43.2284 10.0548 43.042 10.2484C42.6659 10.6659 42.4578 11.2079 42.4578 11.7699C42.4578 12.3318 42.6659 12.8738 43.042 13.2913Z" fill="black" stroke="black" stroke-width="0.2" stroke-miterlimit="10"/>
        <path d="M50.6493 14.5386C50.2914 14.5442 49.9361 14.4773 49.6047 14.342C49.2733 14.2067 48.9727 14.0058 48.721 13.7513C48.2105 13.2179 47.9257 12.5081 47.9257 11.7698C47.9257 11.0316 48.2105 10.3218 48.721 9.78837C48.9768 9.52949 49.2832 9.32601 49.621 9.19057C49.9588 9.05513 50.3209 8.99064 50.6847 9.0011C51.055 8.99062 51.4229 9.06486 51.7601 9.21816C52.0974 9.37147 52.3952 9.59977 52.6308 9.88567L52.162 10.3457C51.9882 10.1222 51.7633 9.94376 51.5063 9.82524C51.2492 9.70672 50.9675 9.6516 50.6847 9.66453C50.4124 9.65758 50.1416 9.7066 49.889 9.80854C49.6365 9.91049 49.4075 10.0632 49.2163 10.2572C48.8353 10.6758 48.6241 11.2215 48.6241 11.7875C48.6241 12.3536 48.8353 12.8992 49.2163 13.3178C49.4075 13.5118 49.6365 13.6645 49.889 13.7665C50.1416 13.8684 50.4124 13.9174 50.6847 13.9105C50.9887 13.9019 51.2871 13.8269 51.559 13.691C51.831 13.555 52.07 13.3612 52.2593 13.1232L52.7369 13.5921C52.4946 13.8825 52.193 14.1177 51.8524 14.282C51.476 14.4578 51.0646 14.5456 50.6493 14.5386Z" fill="black" stroke="black" stroke-width="0.2" stroke-miterlimit="10"/>
        <path d="M55.5144 14.4235H54.8333V9.77066H53.3472V9.11607H56.9916V9.77066H55.5144V14.4235Z" fill="black" stroke="black" stroke-width="0.2" stroke-miterlimit="10"/>
        <path d="M61.68 9.11607L59.672 13.592C59.6233 13.7715 59.5361 13.9382 59.4166 14.0807C59.297 14.2231 59.148 14.3378 58.9797 14.4169C58.8114 14.496 58.6279 14.5376 58.442 14.5387C58.256 14.5399 58.072 14.5006 57.9028 14.4235L58.0797 13.7955C58.188 13.8563 58.3094 13.8897 58.4336 13.8928C58.5645 13.8994 58.6942 13.8654 58.8051 13.7955C58.9125 13.7061 58.9948 13.5902 59.0439 13.4594L59.2385 13.0348L57.4694 9.11607H58.2743L59.5835 12.159L60.875 9.11607H61.68Z" fill="black" stroke="black" stroke-width="0.2" stroke-miterlimit="10"/>
        <path d="M62.4496 14.4235V9.11607H66.2887V14.4235H65.6075V9.77066H63.1307V14.4235H62.4496Z" fill="black" stroke="black" stroke-width="0.2" stroke-miterlimit="10"/>
        <path d="M67.5006 14.4235V9.11607H68.1817V11.3894H70.8355V9.11607H71.5254V14.4235H70.8355V12.0263H68.1817V14.4235H67.5006Z" fill="black" stroke="black" stroke-width="0.2" stroke-miterlimit="10"/>
        <path d="M77.0804 13.7336C76.8249 13.9893 76.5215 14.1922 76.1876 14.3305C75.8537 14.4689 75.4957 14.5402 75.1343 14.5402C74.7728 14.5402 74.4149 14.4689 74.081 14.3305C73.7471 14.1922 73.4437 13.9893 73.1882 13.7336C72.6822 13.2051 72.3997 12.5016 72.3997 11.7699C72.3997 11.0381 72.6822 10.3346 73.1882 9.80609C73.4429 9.55067 73.7456 9.34801 74.0788 9.20974C74.4119 9.07147 74.7691 9.00029 75.1299 9.00029C75.4906 9.00029 75.8478 9.07147 76.181 9.20974C76.5141 9.34801 76.8168 9.55067 77.0715 9.80609C77.5736 10.3367 77.8533 11.0394 77.8533 11.7699C77.8533 12.5003 77.5736 13.203 77.0715 13.7336H77.0804ZM73.6924 13.2913C73.8778 13.4862 74.1018 13.6403 74.35 13.7439C74.5983 13.8474 74.8654 13.8982 75.1343 13.8928C75.403 13.8966 75.6696 13.8451 75.9176 13.7416C76.1656 13.6382 76.3898 13.4849 76.5761 13.2913C76.9522 12.8738 77.1603 12.3318 77.1603 11.7699C77.1603 11.2079 76.9522 10.6659 76.5761 10.2484C76.3898 10.0548 76.1656 9.90153 75.9176 9.79806C75.6696 9.6946 75.403 9.64314 75.1343 9.64687C74.8654 9.64153 74.5983 9.69226 74.35 9.79583C74.1018 9.89939 73.8778 10.0535 73.6924 10.2484C73.3107 10.6631 73.0989 11.2062 73.0989 11.7699C73.0989 12.3335 73.3107 12.8766 73.6924 13.2913Z" fill="black" stroke="black" stroke-width="0.2" stroke-miterlimit="10"/>
        <path d="M80.6454 14.4236V9.11609H82.5649C82.9629 9.1121 83.3479 9.25727 83.6441 9.523C83.7919 9.65127 83.9097 9.81047 83.9892 9.98931C84.0687 10.1682 84.1079 10.3623 84.1041 10.558C84.1062 10.7962 84.0386 11.0299 83.9095 11.2302C83.7789 11.4202 83.5983 11.5702 83.3876 11.6637C83.643 11.751 83.8673 11.9108 84.0333 12.1237C84.1959 12.3404 84.2829 12.6046 84.281 12.8756C84.2855 13.0795 84.2451 13.2819 84.1625 13.4684C84.0799 13.6549 83.9573 13.821 83.8033 13.9547C83.4963 14.2404 83.0904 14.3958 82.6711 14.3882L80.6454 14.4236ZM81.3265 11.3895H82.5649C82.6808 11.3962 82.7967 11.3766 82.9039 11.3321C83.0111 11.2877 83.1069 11.2196 83.1841 11.1329C83.3341 10.9859 83.42 10.7856 83.423 10.5756C83.4313 10.365 83.3585 10.1592 83.2195 10.0007C83.1451 9.91818 83.0534 9.85318 82.951 9.81036C82.8485 9.76753 82.7378 9.74794 82.6268 9.75299H81.3531L81.3265 11.3895ZM81.3265 13.769H82.7065C82.8263 13.773 82.9455 13.7505 83.0556 13.7031C83.1657 13.6557 83.2639 13.5845 83.3434 13.4948C83.4961 13.3316 83.5814 13.1167 83.5822 12.8932C83.5768 12.6716 83.4884 12.4601 83.3345 12.3006C83.2492 12.211 83.1461 12.1404 83.0319 12.0931C82.9176 12.0459 82.7947 12.0232 82.6711 12.0264H81.3265V13.769Z" fill="black" stroke="black" stroke-width="0.2" stroke-miterlimit="10"/>
    </g>
    <defs>
        <linearGradient id="paint0_linear" x1="18.4684" y1="10.6287" x2="3.62514" y2="25.4719" gradientUnits="userSpaceOnUse">
            <stop stop-color="#00A0FF"/>
            <stop offset="0.01" stop-color="#00A1FF"/>
            <stop offset="0.26" stop-color="#00BEFF"/>
            <stop offset="0.51" stop-color="#00D2FF"/>
            <stop offset="0.76" stop-color="#00DFFF"/>
            <stop offset="1" stop-color="#00E3FF"/>
        </linearGradient>
        <linearGradient id="paint1_linear" x1="29.1098" y1="20.6156" x2="7.7119" y2="20.6156" gradientUnits="userSpaceOnUse">
            <stop stop-color="#FFE000"/>
            <stop offset="0.41" stop-color="#FFBD00"/>
            <stop offset="0.78" stop-color="#FFA500"/>
            <stop offset="1" stop-color="#FF9C00"/>
        </linearGradient>
        <linearGradient id="paint2_linear" x1="21.1488" y1="22.6501" x2="1.01575" y2="42.7742" gradientUnits="userSpaceOnUse">
            <stop stop-color="#FF3A44"/>
            <stop offset="1" stop-color="#C31162"/>
        </linearGradient>
        <linearGradient id="paint3_linear" x1="5.6421" y1="3.08315" x2="14.6294" y2="12.0705" gradientUnits="userSpaceOnUse">
            <stop stop-color="#32A071"/>
            <stop offset="0.07" stop-color="#2DA771"/>
            <stop offset="0.48" stop-color="#15CF74"/>
            <stop offset="0.8" stop-color="#06E775"/>
            <stop offset="1" stop-color="#00F076"/>
        </linearGradient>
    </defs>
</svg>
