<svg width="30" height="40" viewBox="0 0 30 40" fill="none" xmlns="http://www.w3.org/2000/svg">
    <path d="M10.2019 14.5112L0 8.56494V31.6173L7.96296 36.1877C8.63813 36.5713 9.40396 36.7734 10.1836 36.7737C10.9632 36.774 11.7292 36.5724 12.4046 36.1893C13.0801 35.8062 13.6412 35.255 14.0318 34.591C14.4223 33.927 14.6285 33.1736 14.6296 32.4064V22.0757C14.6294 20.5436 14.2203 19.0386 13.4432 17.711C12.6662 16.3835 11.5484 15.2801 10.2019 14.5112ZM9.81481 28.975C9.81477 29.2323 9.74551 29.485 9.61409 29.7075C9.48266 29.9299 9.29374 30.1142 9.06652 30.2415C8.8393 30.3689 8.58187 30.4348 8.3204 30.4325C8.05892 30.4303 7.8027 30.36 7.57778 30.2287L4.81481 28.6105V17.1299L7.63704 18.77C8.30157 19.1577 8.85193 19.7092 9.23382 20.37C9.61572 21.0309 9.81597 21.7783 9.81481 22.5385V28.975Z" fill="#53AD59"/>
    <path d="M10.2019 14.5112L0 8.56494V31.6173L7.96296 36.1877C8.63813 36.5713 9.40396 36.7734 10.1836 36.7737C10.9632 36.774 11.7292 36.5724 12.4046 36.1893C13.0801 35.8062 13.6412 35.255 14.0318 34.591C14.4223 33.927 14.6285 33.1736 14.6296 32.4064V22.0757C14.6294 20.5436 14.2203 19.0386 13.4432 17.711C12.6662 16.3835 11.5484 15.2801 10.2019 14.5112ZM9.81481 28.975C9.81477 29.2323 9.74551 29.485 9.61409 29.7075C9.48266 29.9299 9.29374 30.1142 9.06652 30.2415C8.8393 30.3689 8.58187 30.4348 8.3204 30.4325C8.05892 30.4303 7.8027 30.36 7.57778 30.2287L4.81481 28.6105V17.1299L7.63704 18.77C8.30157 19.1577 8.85193 19.7092 9.23382 20.37C9.61572 21.0309 9.81597 21.7783 9.81481 22.5385V28.975Z" fill="url(#paint0_linear)"/>
    <path d="M19.7981 14.5112C18.4516 15.2801 17.3338 16.3835 16.5568 17.711C15.7797 19.0386 15.3706 20.5436 15.3704 22.0757V40L20.3704 37.0843V31.4351L25 28.7016V34.3508L30 31.6173V8.56494L19.7981 14.5112ZM25.1852 23.0524L20.1852 25.7859V22.6296C20.185 21.8703 20.3857 21.124 20.7675 20.4642C21.1494 19.8044 21.6992 19.2538 22.363 18.8665L25.1852 17.2264V23.0524Z" fill="#53AD59"/>
    <path d="M19.7981 14.5112C18.4516 15.2801 17.3338 16.3835 16.5568 17.711C15.7797 19.0386 15.3706 20.5436 15.3704 22.0757V40L20.3704 37.0843V31.4351L25 28.7016V34.3508L30 31.6173V8.56494L19.7981 14.5112ZM25.1852 23.0524L20.1852 25.7859V22.6296C20.185 21.8703 20.3857 21.124 20.7675 20.4642C21.1494 19.8044 21.6992 19.2538 22.363 18.8665L25.1852 17.2264V23.0524Z" fill="url(#paint1_linear)"/>
    <path d="M15 0L0 8.56492L5 11.4806L15 5.83144V0Z" fill="url(#paint2_linear)"/>
    <path d="M15 0L0 8.56492L5 11.4806L15 5.83144V0Z" fill="black" fill-opacity="0.2"/>
    <path d="M15 0L30 8.56492L25 11.4806L15 5.83144V0Z" fill="url(#paint3_linear)"/>
    <path d="M15 0L30 8.56492L25 11.4806L15 5.83144V0Z" fill="black" fill-opacity="0.12"/>
    <path d="M9.96484 11.5754L15 8.71436L20.0352 11.5754L15 14.4365L9.96484 11.5754Z" fill="url(#paint4_linear)"/>
    <defs>
        <linearGradient id="paint0_linear" x1="-2.22812e-07" y1="21.7269" x2="14.6154" y2="21.7269" gradientUnits="userSpaceOnUse">
            <stop stop-color="#4B9C50"/>
            <stop offset="1" stop-color="#53AD59"/>
        </linearGradient>
        <linearGradient id="paint1_linear" x1="15.3846" y1="26.5868" x2="30" y2="26.5868" gradientUnits="userSpaceOnUse">
            <stop stop-color="#53AD59"/>
            <stop offset="1" stop-color="#64B56A"/>
        </linearGradient>
        <linearGradient id="paint2_linear" x1="-2.94444e-06" y1="6.81346" x2="15" y2="6.81346" gradientUnits="userSpaceOnUse">
            <stop stop-color="#4B9C50"/>
            <stop offset="0.72349" stop-color="#53AD59"/>
            <stop offset="1" stop-color="#4B9C50"/>
        </linearGradient>
        <linearGradient id="paint3_linear" x1="15" y1="6.81346" x2="30" y2="6.81346" gradientUnits="userSpaceOnUse">
            <stop stop-color="#4B9C50"/>
            <stop offset="0.25641" stop-color="#53AD59"/>
            <stop offset="0.98" stop-color="#4B9C50"/>
        </linearGradient>
        <linearGradient id="paint4_linear" x1="15" y1="8.71436" x2="15" y2="14.4365" gradientUnits="userSpaceOnUse">
            <stop stop-color="#4B9C50"/>
            <stop offset="1" stop-color="#64B56A"/>
        </linearGradient>
    </defs>
</svg>
