<svg width="101" height="16" viewBox="0 0 101 16" xmlns="http://www.w3.org/2000/svg">
    <path d="M6.71997 1.00003H0.659973V15H3.89997V11.14H6.71997C10.46 11.14 12.8 9.20004 12.8 6.08003C12.8 2.94003 10.46 1.00003 6.71997 1.00003ZM6.53997 8.50003H3.89997V3.64003H6.53997C8.51997 3.64003 9.51997 4.54003 9.51997 6.08003C9.51997 7.60003 8.51997 8.50003 6.53997 8.50003Z"/>
    <path d="M19.9936 15.16C23.4136 15.16 25.8936 12.86 25.8936 9.62003C25.8936 6.38003 23.4136 4.08003 19.9936 4.08003C16.5736 4.08003 14.0736 6.38003 14.0736 9.62003C14.0736 12.86 16.5736 15.16 19.9936 15.16ZM19.9936 12.6C18.4336 12.6 17.2336 11.48 17.2336 9.62003C17.2336 7.76003 18.4336 6.64003 19.9936 6.64003C21.5536 6.64003 22.7336 7.76003 22.7336 9.62003C22.7336 11.48 21.5536 12.6 19.9936 12.6Z"/>
    <path d="M30.959 5.66004V4.24003H27.979V15H31.099V9.92003C31.099 7.86003 32.239 6.92003 33.959 6.92003C34.199 6.92003 34.399 6.94003 34.659 6.96003V4.08003C32.999 4.08003 31.719 4.62003 30.959 5.66004Z"/>
    <path d="M42.9853 12.28C42.6453 12.54 42.1853 12.68 41.7253 12.68C40.8853 12.68 40.3853 12.18 40.3853 11.26V6.88003H43.0653V4.48003H40.3853V1.86003H37.2653V4.48003H35.6053V6.88003H37.2653V11.3C37.2653 13.86 38.7453 15.16 41.2853 15.16C42.2453 15.16 43.1853 14.94 43.8253 14.48L42.9853 12.28Z"/>
    <path d="M49.9167 4.08003C48.1967 4.08003 46.4567 4.54004 45.2767 5.38003L46.3967 7.56003C47.1767 6.94003 48.3567 6.56003 49.4967 6.56003C51.1767 6.56003 51.9767 7.34003 51.9767 8.68003H49.4967C46.2167 8.68003 44.8767 10 44.8767 11.9C44.8767 13.76 46.3767 15.16 48.8967 15.16C50.4767 15.16 51.5967 14.64 52.1767 13.66V15H55.0967V8.86003C55.0967 5.60003 53.1967 4.08003 49.9167 4.08003ZM49.6767 13.06C48.5767 13.06 47.9167 12.54 47.9167 11.76C47.9167 11.04 48.3767 10.5 49.8367 10.5H51.9767V11.6C51.6167 12.58 50.7167 13.06 49.6767 13.06Z"/>
    <path d="M57.9204 15H61.0404V0.160034H57.9204V15Z"/>
    <path d="M69.8201 15H76.1801C80.7601 15 83.9001 12.24 83.9001 8.00003C83.9001 3.76003 80.7601 1.00003 76.1801 1.00003H69.8201V15ZM73.0601 12.34V3.66003H76.0201C78.8001 3.66003 80.6201 5.32003 80.6201 8.00003C80.6201 10.68 78.8001 12.34 76.0201 12.34H73.0601Z"/>
    <path d="M96.6083 15H100.008L93.7483 1.00003H90.5483L84.3083 15H87.6283L88.8683 12H95.3683L96.6083 15ZM89.9083 9.54004L92.1283 4.18003L94.3483 9.54004H89.9083Z"/>
</svg>
